HIERARCHY
ROOT Hips
{
  OFFSET 0.000000 0.000000 0.000000
  CHANNELS 6 Xposition Yposition Zposition Xrotation Yrotation Zrotation
  JOINT Spine
  {
    OFFSET 1.153752 24.040563 -4.909010
    CHANNELS 3 Xrotation Yrotation Zrotation
    JOINT Chest
    {
      OFFSET 1.153752 24.040563 -4.909010
      CHANNELS 3 Xrotation Yrotation Zrotation
      JOINT Neck
      {
        OFFSET 0.000000 4.932851 0.000000
        CHANNELS 3 Xrotation Yrotation Zrotation
        JOINT Head
        {
          OFFSET 0.000000 5.437762 0.000000
          CHANNELS 3 Xrotation Yrotation Zrotation
          End Site
          {
            OFFSET 0.000000 1.631329 0.000000
          }
        }
      }
      JOINT LeftCollar
      {
        OFFSET 3.000000 4.000000 0.000000
        CHANNELS 3 Xrotation Yrotation Zrotation
        JOINT LeftShoulder
        {
          OFFSET 16.168012 -6.279607 -4.266810
          CHANNELS 3 Xrotation Yrotation Zrotation
          JOINT LeftArm
          {
            OFFSET 6.545061 -21.632230 2.960170
            CHANNELS 3 Xrotation Yrotation Zrotation
            JOINT LeftForeArm
            {
              OFFSET 1.498368 -23.182161 2.338304
              CHANNELS 3 Xrotation Yrotation Zrotation
              JOINT LeftHand
              {
                OFFSET -1.465154 -3.436964 -0.741780
                CHANNELS 3 Xrotation Yrotation Zrotation
                End Site
                {
                  OFFSET -0.439546 -1.031089 -0.222534
                }
              }
            }
          }
        }
      }
      JOINT RightCollar
      {
        OFFSET -3.000000 4.000000 0.000000
        CHANNELS 3 Xrotation Yrotation Zrotation
        JOINT RightShoulder
        {
          OFFSET -16.168012 6.279607 4.266810
          CHANNELS 3 Xrotation Yrotation Zrotation
          JOINT RightArm
          {
            OFFSET -21.602294 -8.789214 -2.250702
            CHANNELS 3 Xrotation Yrotation Zrotation
            JOINT RightForeArm
            {
              OFFSET -22.892153 1.498261 -8.563673
              CHANNELS 3 Xrotation Yrotation Zrotation
              JOINT RightHand
              {
                OFFSET -1.659101 2.167831 -4.005455
                CHANNELS 3 Xrotation Yrotation Zrotation
                End Site
                {
                  OFFSET -0.497730 0.650349 -1.201637
                }
              }
            }
          }
        }
      }
    }
  }
  JOINT LeftUpLeg
  {
    OFFSET 8.955008 -0.525145 1.977289
    CHANNELS 3 Xrotation Yrotation Zrotation
    JOINT LeftLeg
    {
      OFFSET 1.504921 -41.558457 -0.051202
      CHANNELS 3 Xrotation Yrotation Zrotation
      JOINT LeftFoot
      {
        OFFSET -2.334462 -39.878169 12.105340
        CHANNELS 3 Xrotation Yrotation Zrotation
        End Site
        {
          OFFSET -0.700339 -11.963451 3.631602
        }
      }
    }
  }
  JOINT RightUpLeg
  {
    OFFSET -8.955008 0.525145 -1.977289
    CHANNELS 3 Xrotation Yrotation Zrotation
    JOINT RightLeg
    {
      OFFSET 2.492134 -34.880539 -0.332581
      CHANNELS 3 Xrotation Yrotation Zrotation
      JOINT RightFoot
      {
        OFFSET -1.650886 -42.546039 9.164183
        CHANNELS 3 Xrotation Yrotation Zrotation
        End Site
        {
          OFFSET -0.495266 -12.763812 2.749255
        }
      }
    }
  }
}
MOTION
Frames: 12
Frame Time: 0.083333
0.156683 0.196649 0.060644 0.001188 -0.004564 -0.022075 0.000000 0.000000 0.000000 -10.645724 18.380560 -17.611292 -53.234732 -22.163315 -0.480772 0.000000 0.000000 0.000000 16.107898 -13.820483 21.225977 0.141689 -0.113284 -0.745739 -0.009508 0.146373 1.490158 0.023905 -0.307533 0.125430 0.000000 0.000000 0.000000 16.107898 -13.820483 21.225977 -0.079771 0.240974 -0.133828 0.146756 0.628975 0.232531 0.082297 -1.016222 -0.111819 0.000000 0.000000 0.000000 0.603124 0.028701 -0.248552 -2.398496 -0.005117 0.030514 0.000000 0.000000 0.000000 2.731695 0.155542 1.410606 -9.089129 -0.429829 -4.122736 0.000000 0.000000 0.000000
0.156838 0.195897 0.060873 -0.000284 -0.004302 -0.021132 0.000000 0.000000 0.000000 -10.645839 18.378357 -17.609523 -53.241009 -22.161433 -0.486799 0.000000 0.000000 0.000000 16.108981 -13.820500 21.225970 0.159049 -0.095196 -0.675474 -0.003507 0.124364 1.343567 0.013160 -0.300815 0.168911 0.000000 0.000000 0.000000 16.108981 -13.820500 21.225970 -0.075383 0.229162 -0.127248 0.139178 0.574752 0.218630 0.055087 -0.976685 -0.110809 0.000000 0.000000 0.000000 0.637493 0.029784 -0.214046 -2.405015 -0.002237 0.007223 0.000000 0.000000 0.000000 2.742600 0.157655 1.363493 -9.110925 -0.426994 -4.031279 0.000000 0.000000 0.000000
0.157131 0.194589 0.061355 -0.007012 -0.011200 -0.056475 0.000000 0.000000 0.000000 -10.640409 18.482446 -17.736731 -53.056627 -22.408790 -0.461712 0.000000 0.000000 0.000000 16.130490 -13.820761 21.225846 0.527895 -0.217693 -1.747463 -0.011411 0.286125 3.438267 0.010166 -0.853574 0.647740 0.000000 0.000000 0.000000 16.130490 -13.820761 21.225846 -0.200516 0.614971 -0.357199 0.375613 1.475018 0.589782 0.066024 -2.679199 -0.307842 0.000000 0.000000 0.000000 1.158354 0.062848 -0.697082 -2.579368 -0.133996 0.327204 0.000000 0.000000 0.000000 2.436610 0.112171 2.509231 -8.416299 -0.578265 -6.407020 0.000000 0.000000 0.000000
0.157373 0.193752 0.061754 -0.030561 -0.012677 -0.069183 0.000000 0.000000 0.000000 -10.635600 18.574468 -17.834211 -52.915461 -22.605338 -0.481027 0.000000 0.000000 0.000000 16.171345 -13.821131 21.225652 1.040764 -0.189417 -2.239693 -0.066242 0.244298 4.262673 -0.028383 -1.305032 1.404459 0.000000 0.000000 0.000000 16.171345 -13.821131 21.225652 -0.256114 0.791442 -0.551566 0.504306 1.780828 0.804422 -0.139266 -3.676418 -0.393673 0.000000 0.000000 0.000000 2.582519 0.127017 -0.785167 -4.205194 -0.280671 0.194452 0.000000 0.000000 0.000000 2.254223 0.084869 3.162809 -7.968821 -0.689568 -7.822132 0.000000 0.000000 0.000000
0.157494 0.193262 0.062115 -0.064980 -0.007925 -0.053947 0.000000 0.000000 0.000000 -10.629739 18.686276 -17.911714 -52.747803 -22.758507 -0.504127 0.000000 0.000000 0.000000 16.235748 -13.821505 21.225399 1.654280 -0.121735 -2.667640 -0.239690 0.124138 4.849283 0.015975 -1.725116 2.019897 0.000000 0.000000 0.000000 16.235748 -13.821505 21.225399 -0.251577 0.763560 -0.789560 0.553067 1.813993 0.952623 -0.368127 -3.991296 -0.273566 0.000000 0.000000 0.000000 4.401612 0.201636 -0.776052 -7.021066 -0.434081 -0.120887 0.000000 0.000000 0.000000 2.144824 0.060718 3.586726 -7.668463 -0.766401 -8.777179 0.000000 0.000000 0.000000
0.157513 0.192956 0.062418 -0.096110 -0.001799 -0.031272 0.000000 0.000000 0.000000 -10.624095 18.793821 -17.987399 -52.544765 -22.905395 -0.512941 0.000000 0.000000 0.000000 16.298352 -13.821893 21.225128 2.312528 -0.012536 -2.953786 -0.310963 -0.031356 5.189501 0.067022 -2.128391 2.348870 0.000000 0.000000 0.000000 16.298352 -13.821893 21.225128 -0.226458 0.687924 -1.048383 0.571304 1.810036 1.120232 -0.594272 -4.058832 -0.073155 0.000000 0.000000 0.000000 4.440063 0.202322 -1.006780 -6.968470 -0.434872 0.192965 0.000000 0.000000 0.000000 2.076873 0.042000 3.850090 -7.510492 -0.810584 -9.376174 0.000000 0.000000 0.000000
0.157441 0.192689 0.062721 -0.096345 0.000158 -0.021777 0.000000 0.000000 0.000000 -10.624242 18.790980 -18.044507 -52.314961 -22.964265 -0.383330 0.000000 0.000000 0.000000 16.301004 -13.822120 21.225055 2.478287 0.045372 -2.978339 -0.329965 -0.076638 5.165709 0.055842 -2.164391 2.373281 0.000000 0.000000 0.000000 16.301004 -13.822120 21.225055 -0.179589 0.686539 -1.270146 0.548797 1.747977 1.329687 -0.738434 -4.081115 -0.018943 0.000000 0.000000 0.000000 4.461382 0.205070 -1.129661 -7.069521 -0.439782 0.341171 0.000000 0.000000 0.000000 1.968940 0.029755 4.065232 -7.488842 -0.836744 -9.832837 0.000000 0.000000 0.000000
0.157371 0.192423 0.062932 -0.061331 -0.000144 -0.015088 0.000000 0.000000 0.000000 -10.627891 18.721302 -18.093197 -52.042507 -22.983774 -0.180826 0.000000 0.000000 0.000000 16.253728 -13.822191 21.225210 2.433610 0.083324 -2.954402 -0.457805 -0.074970 5.119902 -0.002439 -2.036335 2.447919 0.000000 0.000000 0.000000 16.253728 -13.822191 21.225210 -0.139197 0.750876 -1.423238 0.543706 1.699749 1.452948 -0.823768 -4.071205 0.035631 0.000000 0.000000 0.000000 4.441548 0.208014 -1.198770 -7.298189 -0.445682 0.397157 0.000000 0.000000 0.000000 1.809582 0.019292 4.303589 -7.586173 -0.861688 -10.337703 0.000000 0.000000 0.000000
0.157403 0.192151 0.063001 0.026705 -0.006152 -0.023917 0.000000 0.000000 0.000000 -10.637194 18.543728 -18.138550 -51.810571 -22.993925 0.026855 0.000000 0.000000 0.000000 16.125922 -13.822104 21.225703 2.174803 0.127589 -2.893419 -0.747940 -0.030191 5.015431 -0.060121 -1.709250 2.561152 0.000000 0.000000 0.000000 16.125922 -13.822104 21.225703 -0.080576 0.898690 -1.553483 0.546834 1.759418 1.530856 -0.812878 -4.152579 0.055458 0.000000 0.000000 0.000000 4.365774 0.217319 -1.243252 -7.695994 -0.449992 0.427192 0.000000 0.000000 0.000000 1.576663 0.013879 4.591082 -7.598689 -0.897684 -10.917761 0.000000 0.000000 0.000000
0.157598 0.191835 0.063000 0.112883 -0.016024 -0.052236 0.000000 0.000000 0.000000 -10.643092 18.431210 -18.141571 -51.745505 -23.071927 -0.003181 0.000000 0.000000 0.000000 16.009636 -13.822000 21.226068 1.891553 0.105494 -2.859044 -1.083226 0.014619 4.963755 -0.127336 -1.410964 2.878587 0.000000 0.000000 0.000000 16.009636 -13.822000 21.226068 -0.069868 1.040117 -1.712274 0.565921 1.923644 1.666248 -0.743118 -4.310471 0.062884 0.000000 0.000000 0.000000 4.287150 0.232009 -1.275787 -7.924205 -0.457451 0.475457 0.000000 0.000000 0.000000 1.420779 0.019055 4.754138 -7.527146 -0.929263 -11.233075 0.000000 0.000000 0.000000
0.157804 0.191480 0.063032 0.139272 -0.027411 -0.102204 0.000000 0.000000 0.000000 -10.641479 18.462662 -18.119250 -51.844687 -23.249104 -0.277910 0.000000 0.000000 0.000000 15.977584 -13.822150 21.225889 1.788985 0.037596 -2.831200 -1.210405 0.030951 4.994239 -0.143309 -1.379609 3.251158 0.000000 0.000000 0.000000 15.977584 -13.822150 21.225889 -0.157319 1.201010 -1.749762 0.645314 2.043630 1.768538 -0.599809 -4.491448 0.038342 0.000000 0.000000 0.000000 4.273591 0.251010 -1.310074 -7.898259 -0.466608 0.580168 0.000000 0.000000 0.000000 1.404601 0.032485 4.780475 -7.498233 -0.945117 -11.249279 0.000000 0.000000 0.000000
0.157817 0.191232 0.063243 0.149401 -0.039811 -0.160858 0.000000 0.000000 0.000000 -10.641717 18.459151 -18.097886 -51.918297 -23.446356 -0.556340 0.000000 0.000000 0.000000 15.949291 -13.822329 21.226018 1.701600 0.000634 -2.851493 -1.266908 0.063187 5.103575 -0.210856 -1.383127 3.684317 0.000000 0.000000 0.000000 15.949291 -13.822329 21.226018 -0.228259 1.392795 -1.778701 0.695864 2.087621 1.937487 -0.626350 -4.683107 -0.031919 0.000000 0.000000 0.000000 4.275397 0.271627 -1.333240 -7.868873 -0.470442 0.696835 0.000000 0.000000 0.000000 1.403395 0.047103 4.818819 -7.407720 -0.964074 -11.269863 0.000000 0.000000 0.000000
